<svg width="48" height="48" viewBox="0 0 48 48" fill="none" xmlns="http://www.w3.org/2000/svg">
<g clipPath="url(#clip0_63_22568)">
<path fillRule="evenodd" clipRule="evenodd" d="M24 10C31.732 10 38 16.268 38 24C38 31.732 31.732 38 24 38C16.268 38 10 31.732 10 24C10 16.268 16.268 10 24 10Z" fill="white"/>
<path fillRule="evenodd" clipRule="evenodd" d="M24.0003 16C23.2974 16 22.7215 16.5439 22.6706 17.2338L22.667 17.3333V25L22.6706 25.0995C22.6793 25.2164 22.703 25.3292 22.7399 25.4361C22.7579 25.4879 22.7789 25.5383 22.8028 25.5869L22.8407 25.6585L22.8775 25.7194L22.947 25.8175L23.0143 25.8975L23.1051 25.9881L23.2011 26.0673L23.307 26.1391L23.4012 26.1915L23.4829 26.2292L23.5875 26.2682L23.6763 26.2937L23.8033 26.3189L23.9008 26.3297L24.0003 26.3333H30.0003L30.0998 26.3297C30.7897 26.2788 31.3337 25.7029 31.3337 25C31.3337 24.2971 30.7897 23.7212 30.0998 23.6703L30.0003 23.6667H25.3337V17.3333L25.33 17.2338C25.2791 16.5439 24.7032 16 24.0003 16Z" fill="#5C5C5C"/>
<path fillRule="evenodd" clipRule="evenodd" d="M24 6C33.9411 6 42 14.0589 42 24C42 33.9411 33.9411 42 24 42C14.0589 42 6 33.9411 6 24C6 14.0589 14.0589 6 24 6ZM24 10C16.268 10 10 16.268 10 24C10 31.732 16.268 38 24 38C31.732 38 38 31.732 38 24C38 16.268 31.732 10 24 10Z" fill="#FF5C44"/>
</g>
<defs>
<clipPath id="clip0_63_22568">
<rect width="48" height="48" fill="white"/>
</clipPath>
</defs>
</svg>
